<svg width="28" height="28" viewBox="0 0 28 28" fill="none" xmlns="http://www.w3.org/2000/svg">
<path d="M2.33325 11.0835C2.33328 9.7852 2.72711 8.51748 3.46274 7.44774C4.19837 6.378 5.24119 5.55656 6.45346 5.09193C7.66574 4.62729 8.99044 4.54131 10.2526 4.84535C11.5148 5.14938 12.655 5.82912 13.5228 6.7948C13.5839 6.86014 13.6578 6.91224 13.7398 6.94786C13.8219 6.98348 13.9104 7.00186 13.9999 7.00186C14.0894 7.00186 14.1779 6.98348 14.26 6.94786C14.3421 6.91224 14.416 6.86014 14.4771 6.7948C15.3421 5.82284 16.4826 5.13739 17.7468 4.82966C19.011 4.52194 20.339 4.60653 21.5539 5.07219C22.7689 5.53785 23.8132 6.36249 24.5479 7.43635C25.2826 8.5102 25.6728 9.78235 25.6666 11.0835C25.6666 13.7551 23.9166 15.7501 22.1666 17.5001L15.7593 23.6986C15.5419 23.9483 15.2738 24.1489 14.973 24.287C14.6721 24.4251 14.3453 24.4976 14.0143 24.4997C13.6832 24.5018 13.3555 24.4334 13.0529 24.2991C12.7503 24.1648 12.4798 23.9677 12.2593 23.7208L5.83325 17.5001C4.08325 15.7501 2.33325 13.7668 2.33325 11.0835Z" stroke="#8B5CF6" stroke-width="2.33333" stroke-linecap="round" stroke-linejoin="round"/>
</svg>
