<svg width="32" height="32" viewBox="0 0 32 32" fill="none" xmlns="http://www.w3.org/2000/svg">
<path d="M16 23.9998V6.6665" stroke="white" stroke-width="2.66667" stroke-linecap="round" stroke-linejoin="round"/>
<path d="M20 17.3333C18.8464 16.9961 17.8331 16.2942 17.112 15.3327C16.3909 14.3712 16.0007 13.2019 16 12C15.9993 13.2019 15.6091 14.3712 14.888 15.3327C14.1669 16.2942 13.1536 16.9961 12 17.3333" stroke="white" stroke-width="2.66667" stroke-linecap="round" stroke-linejoin="round"/>
<path d="M23.464 8.66668C23.7708 8.13533 23.9513 7.54052 23.9914 6.92827C24.0316 6.31602 23.9303 5.70274 23.6956 5.13587C23.4608 4.569 23.0987 4.06374 22.6374 3.65919C22.1761 3.25463 21.6279 2.96161 21.0353 2.8028C20.4426 2.644 19.8214 2.62366 19.2196 2.74337C18.6178 2.86308 18.0517 3.11961 17.5649 3.49314C17.0781 3.86667 16.6838 4.34716 16.4125 4.89746C16.1411 5.44776 16 6.05311 16 6.66668C16 6.05311 15.8589 5.44776 15.5875 4.89746C15.3162 4.34716 14.9219 3.86667 14.4351 3.49314C13.9483 3.11961 13.3822 2.86308 12.7804 2.74337C12.1786 2.62366 11.5574 2.644 10.9647 2.8028C10.3721 2.96161 9.82387 3.25463 9.36257 3.65919C8.90127 4.06374 8.53923 4.569 8.30444 5.13587C8.06965 5.70274 7.96842 6.31602 8.00858 6.92827C8.04873 7.54052 8.22919 8.13533 8.536 8.66668" stroke="white" stroke-width="2.66667" stroke-linecap="round" stroke-linejoin="round"/>
<path d="M23.9961 6.8335C24.7798 7.03501 25.5074 7.41223 26.1238 7.93658C26.7401 8.46093 27.2291 9.11866 27.5536 9.85996C27.8782 10.6013 28.0297 11.4067 27.9969 12.2152C27.9641 13.0238 27.7477 13.8143 27.3641 14.5268" stroke="white" stroke-width="2.66667" stroke-linecap="round" stroke-linejoin="round"/>
<path d="M24 23.9999C25.174 23.9998 26.3152 23.6124 27.2466 22.8977C28.178 22.183 28.8475 21.1809 29.1514 20.0469C29.4552 18.9129 29.3764 17.7103 28.9272 16.6257C28.4779 15.541 27.6834 14.6349 26.6667 14.0479" stroke="white" stroke-width="2.66667" stroke-linecap="round" stroke-linejoin="round"/>
<path d="M26.6226 23.3105C26.716 24.0335 26.6603 24.768 26.4587 25.4686C26.2572 26.1692 25.9142 26.821 25.4509 27.3838C24.9876 27.9466 24.4138 28.4085 23.765 28.7409C23.1161 29.0733 22.4061 29.2691 21.6786 29.3163C20.9511 29.3635 20.2217 29.2611 19.5354 29.0154C18.8491 28.7696 18.2204 28.3858 17.6882 27.8876C17.1561 27.3893 16.7317 26.7873 16.4413 26.1186C16.1509 25.45 16.0007 24.7289 15.9999 23.9999C15.9991 24.7289 15.8489 25.45 15.5585 26.1186C15.2682 26.7873 14.8438 27.3893 14.3116 27.8876C13.7794 28.3858 13.1508 28.7696 12.4644 29.0154C11.7781 29.2611 11.0487 29.3635 10.3212 29.3163C9.59375 29.2691 8.88369 29.0733 8.23488 28.7409C7.58606 28.4085 7.01228 27.9466 6.54896 27.3838C6.08564 26.821 5.74263 26.1692 5.5411 25.4686C5.33957 24.768 5.2838 24.0335 5.37725 23.3105" stroke="white" stroke-width="2.66667" stroke-linecap="round" stroke-linejoin="round"/>
<path d="M8.00009 23.9999C6.82609 23.9998 5.6849 23.6124 4.75351 22.8977C3.82213 22.183 3.15259 21.1809 2.84873 20.0469C2.54487 18.9129 2.62367 17.7103 3.07291 16.6257C3.52216 15.541 4.31674 14.6349 5.33343 14.0479" stroke="white" stroke-width="2.66667" stroke-linecap="round" stroke-linejoin="round"/>
<path d="M8.00399 6.8335C7.22026 7.03501 6.49266 7.41223 5.8763 7.93658C5.25993 8.46093 4.77097 9.11866 4.44645 9.85996C4.12192 10.6013 3.97033 11.4067 4.00317 12.2152C4.03601 13.0238 4.25241 13.8143 4.63599 14.5268" stroke="white" stroke-width="2.66667" stroke-linecap="round" stroke-linejoin="round"/>
</svg>
